<svg xmlns="http://www.w3.org/2000/svg" viewBox="0 0 512 512">
  <!-- Dynamic Gradient Background -->
  <defs>
    <linearGradient id="bg-grad" x1="0%" y1="0%" x2="100%" y2="100%">
      <stop offset="0%" stop-color="#34d399" /> <!-- Emerald 400 -->
      <stop offset="100%" stop-color="#22d3ee" /> <!-- Cyan 400 -->
    </linearGradient>
    <filter id="shadow" x="0" y="0" width="150%" height="150%">
      <feDropShadow dx="0" dy="8" stdDeviation="12" flood-color="#000000" flood-opacity="0.3"/>
    </filter>
  </defs>
  
  <!-- Rounded Base Background for Maskable Icon standard -->
  <rect width="512" height="512" rx="112" fill="url(#bg-grad)" />
  
  <!-- Main Behera Logo Symbol (Music Note / Play Button abstraction) -->
  <g fill="#ffffff" filter="url(#shadow)">
    <path d="M371.3,234.6l-136-104C224.2,122.1,208,130,208,144v84.6c-13.8-19.4-36.5-31.9-61.9-31.9C104.7,196.7,70,229.4,70,268.4
             c0,39,34.7,71.7,76.1,71.7c40.3,0,73.4-30.8,75.9-68.4h2v16.1c0,35.6-26.6,65.3-61.9,67.6c-11.4,0.7-22.3-1.6-32.1-6.1l-14.7,28.6
             c13.7,6.8,29.1,10.1,44.9,10.1c54.7,0,99.8-44.5,99.8-100.2V220c15.2,16.5,37.1,26.9,61.4,26.9c22.3,0,42.8-8.8,57.6-24
             l-25.1-25.2C344.9,207,333.6,211.5,321.4,211.5C301.7,211.5,284.5,199.1,277.6,182.1l93.7,71.7v-19.1z"/>
    
    <!-- Bold Inner Play Arrow Overlaid -->
    <polygon points="280,240 280,330 360,285" fill="#ffffff" />
  </g>
</svg>
